<svg
  xmlns="http://www.w3.org/2000/svg"
  width="32"
  height="32"
  viewBox="0 0 32 32"
>
  <path
    fill="currentColor"
    d="M28 14h.5c.825 0 1.5-.675 1.5-1.5v-5c0-.825-.675-1.5-1.5-1.5H28V0h-4v6h-.5c-.825 0-1.5.675-1.5 1.5v5c0 .825.675 1.5 1.5 1.5h.5v18h4V14zm-4-6h4v4h-4V8zm-5.5 18c.825 0 1.5-.675 1.5-1.5v-5c0-.825-.675-1.5-1.5-1.5H18V0h-4v18h-.5c-.825 0-1.5.675-1.5 1.5v5c0 .825.675 1.5 1.5 1.5h.5v6h4v-6h.5zM14 20h4v4h-4v-4zm-5.5-6c.825 0 1.5-.675 1.5-1.5v-5C10 6.675 9.325 6 8.5 6H8V0H4v6h-.5C2.675 6 2 6.675 2 7.5v5c0 .825.675 1.5 1.5 1.5H4v18h4V14h.5zM4 8h4v4H4V8z"
  />
</svg>
