<svg
  xmlns="http://www.w3.org/2000/svg"
  width="32"
  height="32"
  viewBox="0 0 32 32"
>
  <path fill="currentColor" d="M32 4h-4V0h-4v4h-4v4h4v4h4V8h4z" />
  <path
    fill="currentColor"
    d="M26.996 13.938c.576.64 1.1 1.329 1.563 2.062a15.223 15.223 0 01-4.67 4.697C21.527 22.204 18.799 23 16 23s-5.527-.796-7.889-2.303A15.212 15.212 0 013.441 16a15.223 15.223 0 015.041-4.925A8 8 0 1024 13.812l-.001-.065a8.003 8.003 0 01-5.998-7.635A17.877 17.877 0 0016 5.999c-6.979 0-13.028 4.064-16 10 2.972 5.936 9.021 10 16 10s13.027-4.064 16-10a18.386 18.386 0 00-1.958-3.095 7.952 7.952 0 01-3.046 1.034zM13 10a3 3 0 110 6 3 3 0 010-6z"
  />
</svg>
