<svg
  xmlns="http://www.w3.org/2000/svg"
  width="32"
  height="32"
  viewBox="0 0 32 32"
>
  <path fill="currentColor" d="M20 4h12v4H20V4z" />
  <path
    fill="currentColor"
    d="M27.198 10H18V6.113A17.859 17.859 0 0016 6C9.021 6 2.972 10.064 0 16c2.972 5.936 9.021 10 16 10s13.027-4.064 16-10a18.336 18.336 0 00-4.803-6zM13 10a3 3 0 110 6 3 3 0 010-6zm10.889 10.697C21.527 22.204 18.799 23 16 23s-5.527-.796-7.889-2.303A15.212 15.212 0 013.441 16a15.223 15.223 0 015.041-4.925 8 8 0 1015.036 0A15.212 15.212 0 0128.559 16a15.223 15.223 0 01-4.67 4.697z"
  />
</svg>
