<svg
  xmlns="http://www.w3.org/2000/svg"
  width="462"
  height="512"
  viewBox="0 0 462 512"
>
  <path
    d="m357.4 85.8 32-54.401c4.803-9.6 1.6-22.402-6.4-27.198-9.6-4.802-22.403-1.6-27.199 6.4l-33.598 56C293.4 55.4 263 49 231 49s-62.4 6.4-89.599 17.599l-33.598-56c-4.802-9.6-17.599-12.803-27.198-6.402-9.598 4.803-12.801 17.599-6.4 27.198l32 54.401c-62.402 40-105.6 108.803-105.6 185.6v158.4c0 25.599 12.803 46.401 35.198 59.197 22.401 12.803 51.197 12.803 73.6-1.6 9.598-6.4 24-6.4 33.597 0 27.197 16 57.6 24 88 24s62.401-8 88-24c9.6-6.4 24-6.4 33.6 0 22.4 14.403 49.597 14.403 73.597 1.6 22.402-12.802 35.198-35.197 35.198-59.197v-158.4c.005-76.797-41.594-145.6-103.995-185.6v.004Zm64 344c0 14.401-11.197 22.401-14.401 24-9.6 6.4-22.402 6.4-32 0-22.402-14.401-52.803-14.401-75.198 0-41.598 25.599-94.401 25.599-136 0-11.197-6.4-24-11.197-38.401-11.197-14.401 0-25.599 3.197-38.401 11.197-9.6 6.4-22.402 6.4-32 0-4.803-3.197-14.402-9.6-14.402-24V271.4c0-100.803 84.803-182.4 190.4-182.4 105.598 0 190.4 81.599 190.4 182.4l.003 158.4Z"
    fill="#d0d0d0"
  />
  <path
    d="M231 164.2c-59.197 0-107.197 46.401-107.197 104s48 104 107.197 104 107.197-46.401 107.197-104-48-104-107.197-104Zm27.197 163.2c6.4-6.4 9.6-14.401 9.6-24 0-19.197-16-35.197-36.804-35.197-20.802 0-36.802 16-36.802 35.197 0 9.6 3.198 17.599 9.6 24-24-9.6-41.6-32-41.6-59.197 0-35.198 30.401-64 67.197-64 36.803 0 67.197 28.802 67.197 64 1.61 27.197-14.39 49.598-38.39 59.197h.002Z"
    fill="#d0d0d0"
  />
</svg>
