<?xml version="1.0" standalone="no"?>
<!DOCTYPE svg PUBLIC "-//W3C//DTD SVG 20010904//EN" "http://www.w3.org/TR/2001/REC-SVG-20010904/DTD/svg10.dtd">
<svg
  version="1.0"
  xmlns="http://www.w3.org/2000/svg"
  width="1024.000000pt"
  height="1024.000000pt"
  viewBox="0 0 1024.000000 1024.000000"
  preserveAspectRatio="xMidYMid meet"
>
  <g
    transform="translate(0.000000,1024.000000) scale(0.100000,-0.100000)"
    fill="#000000"
    stroke="none"
  >
    <path
      d="M2349 10226 c-2 -2 -24 -5 -49 -7 -100 -6 -239 -77 -302 -153 -25
-31 -66 -118 -72 -152 -2 -16 -5 -31 -6 -34 -6 -15 -4 -47 3 -64 7 -14 6 -16
-4 -11 -8 6 -10 4 -5 -4 5 -7 10 -27 13 -44 10 -64 11 -65 105 -226 43 -73 78
-137 78 -142 0 -5 5 -9 10 -9 6 0 10 -5 10 -11 0 -6 13 -29 28 -52 15 -23 34
-55 42 -72 8 -16 17 -32 20 -35 3 -3 16 -25 29 -50 13 -25 29 -51 35 -59 6 -7
25 -38 41 -67 17 -30 90 -155 163 -279 72 -123 132 -226 132 -229 0 -2 -26
-21 -57 -42 -32 -21 -60 -40 -63 -43 -8 -9 -100 -71 -106 -71 -2 0 -15 -9 -27
-20 -12 -11 -78 -64 -147 -118 -69 -55 -138 -111 -153 -126 -15 -14 -32 -26
-38 -26 -5 0 -9 -6 -9 -12 0 -7 -15 -23 -33 -35 -17 -12 -95 -87 -172 -165
-143 -147 -170 -175 -265 -288 -30 -36 -58 -66 -62 -68 -5 -2 -8 -8 -8 -13 0
-5 -8 -18 -17 -28 -32 -35 -44 -51 -134 -177 -49 -68 -89 -128 -89 -133 0 -5
-3 -11 -8 -13 -11 -4 -112 -165 -112 -177 0 -6 -4 -11 -10 -11 -5 0 -10 -4
-10 -8 0 -4 -25 -53 -55 -107 -77 -139 -205 -404 -205 -426 0 -6 -7 -23 -15
-37 -12 -22 -55 -130 -60 -152 -1 -3 -7 -18 -14 -35 -7 -16 -14 -37 -16 -45
-3 -13 -29 -96 -66 -209 -6 -18 -13 -47 -16 -65 -3 -17 -9 -39 -14 -48 -5 -10
-7 -18 -5 -18 3 0 2 -10 -3 -23 -5 -13 -12 -41 -15 -63 -4 -21 -11 -55 -16
-74 -10 -38 -15 -62 -30 -155 -5 -33 -12 -71 -14 -85 -5 -29 -13 -97 -32 -285
-10 -93 -9 -3623 1 -3680 5 -27 9 -59 9 -70 1 -11 4 -22 7 -25 4 -3 9 -21 12
-40 4 -32 8 -47 24 -90 4 -8 7 -22 9 -30 2 -8 7 -23 13 -35 10 -23 24 -57 25
-66 2 -10 108 -194 116 -199 4 -3 13 -16 20 -29 24 -46 180 -207 250 -260 19
-14 46 -36 60 -49 14 -12 30 -22 37 -22 7 0 16 -6 20 -12 23 -37 299 -165 416
-194 32 -8 62 -14 91 -20 16 -2 32 -7 35 -9 16 -9 160 -20 276 -19 122 1 174
5 235 19 14 3 41 8 60 11 19 3 43 10 53 15 9 5 17 7 17 4 0 -3 15 1 33 8 17 8
34 14 37 15 53 9 306 130 320 153 9 13 158 70 190 72 17 1 30 4 30 8 0 12 218
0 274 -15 57 -16 232 -102 256 -126 5 -5 201 -104 210 -106 6 -1 62 -26 138
-60 29 -13 58 -24 66 -24 7 0 16 -3 20 -7 4 -5 11 -8 14 -8 4 0 39 -12 77 -26
39 -14 95 -33 125 -42 30 -9 73 -22 95 -29 22 -6 45 -13 50 -14 6 -1 21 -4 35
-7 14 -3 57 -13 95 -22 39 -10 84 -19 100 -21 17 -3 41 -7 55 -11 27 -7 48
-10 120 -17 25 -3 45 -5 45 -6 0 -1 11 -3 25 -5 210 -25 577 -25 800 0 19 3
53 6 75 9 73 8 286 48 360 68 22 5 47 12 55 13 8 2 15 4 15 5 0 1 10 3 23 6
63 11 321 101 454 158 21 9 40 16 43 17 13 1 233 119 326 176 123 74 226 102
367 98 53 -2 109 -8 123 -13 15 -6 29 -9 31 -7 4 4 40 -14 278 -136 107 -55
175 -84 208 -90 4 0 22 -7 40 -14 17 -8 32 -12 32 -11 0 2 17 0 38 -5 159 -40
440 -47 562 -14 8 2 31 7 50 11 41 7 42 7 100 23 25 7 52 15 60 18 8 4 17 7
20 8 21 5 62 21 100 38 25 11 51 21 59 23 8 1 17 6 20 11 3 4 12 9 20 11 17 4
130 71 172 103 125 95 219 186 296 287 23 31 47 62 53 69 55 66 157 298 186
422 21 88 23 98 32 156 9 66 8 3554 -2 3670 -4 50 -11 108 -15 130 -4 22 -7
55 -6 73 0 17 -2 32 -5 32 -3 0 -6 12 -6 28 -2 30 -8 68 -30 187 -22 115 -23
122 -40 189 -8 34 -16 68 -18 76 -28 113 -110 379 -136 435 -4 11 -27 67 -50
125 -62 156 -252 539 -272 548 -5 2 -8 8 -8 12 0 13 -92 164 -102 168 -4 2 -8
8 -8 12 0 12 -179 269 -207 298 -8 8 -26 30 -41 50 -15 21 -29 39 -32 42 -3 3
-25 30 -50 60 -138 169 -422 448 -605 596 -33 26 -62 51 -65 54 -10 12 -159
119 -255 185 -55 38 -104 72 -108 75 -5 4 23 59 61 122 38 63 77 131 87 152 9
20 21 36 26 36 5 0 9 5 9 10 0 6 68 126 152 268 83 141 165 280 180 307 16 28
40 68 54 90 86 141 104 195 100 309 -5 139 -17 176 -90 273 -27 37 -126 105
-126 87 0 -3 -6 -1 -14 5 -12 10 -55 17 -136 23 -22 2 -89 -11 -145 -27 -94
-27 -188 -108 -227 -196 -7 -16 -16 -29 -20 -29 -5 0 -8 -4 -8 -9 0 -12 -93
-165 -102 -169 -5 -2 -8 -8 -8 -13 0 -5 -27 -54 -60 -108 -33 -55 -60 -104
-60 -110 0 -6 -4 -11 -10 -11 -5 0 -16 -13 -22 -28 -13 -28 -278 -473 -288
-482 -3 -3 -14 -21 -24 -41 -40 -77 -36 -75 -123 -41 -84 33 -145 53 -153 50
-3 -1 -16 5 -30 12 -14 8 -30 15 -37 16 -6 1 -48 14 -92 28 -44 14 -90 28
-103 30 -13 3 -23 5 -23 6 0 1 -7 3 -15 5 -8 1 -35 8 -60 15 -25 7 -52 14 -60
16 -8 2 -43 10 -77 18 -34 9 -77 18 -95 21 -18 3 -40 8 -49 11 -10 2 -30 7
-45 9 -16 2 -41 7 -56 10 -16 3 -40 7 -55 9 -16 2 -45 7 -65 10 -112 18 -216
30 -373 43 -177 15 -695 7 -840 -12 -16 -2 -55 -6 -85 -9 -30 -3 -64 -8 -75
-10 -11 -2 -45 -7 -75 -12 -30 -4 -57 -8 -60 -9 -3 0 -27 -5 -55 -10 -27 -4
-57 -9 -65 -11 -29 -5 -76 -15 -158 -34 -46 -11 -88 -18 -93 -14 -5 3 -9 1 -9
-4 0 -9 -38 -20 -82 -25 -10 -1 -18 -6 -18 -11 0 -5 -3 -7 -6 -3 -3 3 -23 -1
-45 -8 -22 -8 -43 -15 -47 -15 -14 -2 -177 -52 -187 -58 -5 -4 -14 -7 -20 -8
-15 -3 -146 -53 -182 -70 -32 -14 -63 -10 -63 9 0 5 -22 46 -50 89 -27 43 -50
81 -50 84 0 3 -13 24 -28 47 -16 23 -40 62 -53 87 -13 25 -28 49 -32 55 -18
23 -127 208 -127 216 0 5 -4 9 -10 9 -5 0 -10 4 -10 9 0 21 -331 559 -364 592
-42 42 -124 84 -180 93 -21 4 -42 8 -46 11 -4 2 -9 3 -11 1z m3111 -1779 c19
-2 67 -8 105 -11 39 -4 77 -9 85 -11 8 -2 38 -7 65 -10 28 -3 57 -7 65 -9 8
-1 33 -6 55 -10 22 -4 60 -12 85 -17 25 -5 56 -12 70 -15 50 -10 144 -33 205
-50 11 -3 25 -6 30 -8 25 -6 62 -18 80 -26 18 -8 63 -19 82 -21 5 0 19 -7 33
-14 31 -16 91 -37 108 -38 6 0 12 -4 12 -9 0 -4 7 -8 15 -8 9 0 45 -13 80 -29
36 -17 68 -30 70 -31 3 0 34 -14 70 -30 36 -17 70 -30 74 -30 5 0 11 -3 13 -7
2 -5 46 -30 98 -57 52 -27 144 -79 204 -115 59 -36 117 -70 127 -76 11 -5 19
-13 19 -17 0 -5 6 -8 14 -8 8 0 16 -3 18 -7 2 -5 26 -24 53 -42 28 -19 52 -38
55 -41 3 -3 21 -17 40 -30 19 -13 37 -27 40 -30 3 -3 25 -21 50 -40 25 -19 55
-44 66 -55 12 -11 47 -42 77 -68 89 -77 307 -300 307 -314 0 -7 4 -13 10 -13
15 0 250 -299 250 -319 0 -5 4 -11 8 -13 22 -9 173 -260 248 -413 27 -55 51
-102 54 -105 6 -5 12 -19 75 -180 20 -52 41 -104 46 -115 25 -59 113 -366 124
-435 2 -14 7 -36 10 -50 3 -14 8 -36 11 -50 2 -14 7 -41 10 -60 4 -19 8 -42 9
-50 1 -8 5 -33 8 -55 3 -22 8 -62 12 -90 3 -27 9 -72 12 -100 3 -27 8 -830 10
-1784 2 -1527 1 -1741 -12 -1799 -32 -136 -103 -241 -232 -342 -28 -22 -142
-79 -188 -95 -168 -56 -369 -22 -530 90 -16 12 -49 30 -72 40 -24 10 -43 23
-43 28 0 6 -3 8 -6 4 -4 -3 -18 0 -33 7 -34 17 -169 64 -201 70 -14 2 -32 7
-40 10 -97 35 -453 42 -590 11 -14 -3 -37 -7 -52 -10 -94 -17 -298 -99 -403
-162 -123 -74 -172 -101 -269 -148 -159 -77 -365 -150 -506 -181 -19 -4 -37
-8 -40 -9 -77 -18 -173 -35 -225 -40 -22 -2 -40 -5 -40 -5 0 -13 -454 -19
-560 -7 -92 10 -137 16 -175 23 -19 3 -45 8 -57 10 -89 16 -228 50 -251 63
-12 6 -22 10 -22 7 0 -4 -124 35 -160 51 -8 3 -17 7 -20 8 -58 20 -262 113
-270 124 -3 3 -11 7 -18 9 -7 1 -46 22 -87 47 -40 25 -78 45 -83 45 -5 0 -21
9 -36 21 -14 11 -26 17 -26 12 0 -4 -4 -3 -8 2 -8 11 -25 19 -117 58 -50 21
-125 48 -145 52 -3 1 -25 7 -50 14 -122 35 -249 49 -400 45 -74 -3 -144 -6
-155 -7 -11 -2 -39 -7 -62 -11 -24 -4 -46 -8 -50 -8 -5 0 -19 -5 -33 -10 -14
-6 -34 -11 -45 -13 -64 -10 -214 -77 -370 -167 -126 -72 -212 -96 -336 -96
-51 1 -106 5 -123 11 -64 20 -158 60 -170 72 -6 7 -27 20 -46 30 -42 22 -180
160 -180 181 0 8 -3 14 -8 14 -8 0 -42 75 -48 105 -2 11 -7 34 -11 50 -10 40
-10 3468 0 3570 5 44 10 94 11 110 2 17 6 48 10 70 4 22 9 56 11 75 3 19 7 46
10 60 3 14 9 50 15 80 15 84 17 90 35 160 9 36 18 70 19 75 14 63 87 282 117
351 9 23 15 45 12 48 -4 3 -1 6 5 6 7 0 11 3 10 8 -1 8 26 75 47 113 8 14 12
28 9 31 -2 3 2 11 11 18 8 7 15 17 15 23 0 15 63 141 73 145 4 2 7 8 7 14 0 6
20 44 45 85 25 40 45 78 45 83 0 6 5 10 10 10 6 0 10 5 10 11 0 15 159 247
197 287 7 7 13 16 13 20 0 4 15 23 33 43 17 20 48 56 67 79 88 107 275 300
370 380 25 21 59 50 75 65 47 41 128 103 239 181 55 40 108 78 117 85 16 14
22 18 89 55 19 10 37 22 40 25 3 3 37 23 75 44 39 21 72 41 75 44 3 3 12 7 20
9 8 2 17 8 18 13 2 5 8 9 14 9 5 0 53 21 106 47 53 27 99 48 102 49 3 0 28 11
55 23 80 36 229 94 243 94 6 0 12 3 12 7 0 4 6 7 13 8 15 1 36 7 62 16 49 19
96 33 168 52 4 1 9 3 12 4 6 3 5 3 60 15 22 4 45 9 50 11 6 2 20 5 33 8 13 3
31 7 40 10 9 3 33 8 52 11 19 3 42 8 51 11 10 2 31 6 49 9 17 2 43 6 58 9 90
18 193 31 326 41 38 3 71 7 73 9 5 5 559 -2 603 -7z"
    />
    <path
      d="M4997 6954 c-1 -1 -36 -5 -77 -8 -41 -3 -86 -8 -100 -10 -14 -3 -41
-7 -60 -10 -63 -10 -94 -17 -192 -41 -54 -13 -102 -26 -108 -30 -5 -3 -20 -8
-32 -10 -50 -10 -267 -106 -398 -176 -29 -16 -202 -130 -210 -138 -3 -4 -32
-26 -65 -51 -92 -70 -335 -316 -335 -341 0 -5 -3 -9 -7 -9 -5 0 -19 -17 -33
-38 -14 -20 -27 -39 -31 -42 -22 -20 -141 -224 -187 -323 -28 -60 -89 -222
-98 -262 -4 -16 -9 -34 -12 -40 -4 -5 -7 -16 -8 -25 -2 -8 -7 -33 -13 -55 -5
-22 -12 -53 -15 -70 -3 -16 -8 -46 -12 -65 -35 -191 -36 -462 0 -665 3 -22 8
-54 11 -72 2 -18 6 -36 9 -41 3 -5 8 -22 11 -38 10 -47 10 -48 18 -61 5 -7 6
-17 2 -22 -3 -5 -1 -12 5 -16 5 -3 10 -17 10 -30 0 -13 5 -27 10 -30 5 -3 10
-15 10 -26 0 -10 4 -27 9 -37 5 -9 14 -30 21 -47 7 -16 16 -38 21 -47 5 -10 9
-23 9 -30 0 -6 6 -19 13 -27 7 -9 22 -36 32 -61 11 -25 22 -47 25 -50 3 -3 16
-25 29 -50 13 -25 33 -56 43 -69 10 -13 18 -30 18 -37 0 -8 4 -14 8 -14 5 0
24 -24 42 -52 19 -29 39 -57 45 -63 6 -5 28 -31 49 -57 106 -134 308 -313 480
-426 68 -44 281 -155 351 -183 63 -25 120 -43 121 -39 0 3 7 0 15 -7 18 -14
201 -64 284 -78 11 -1 38 -6 60 -10 43 -8 75 -11 175 -20 85 -8 310 -11 310
-5 0 3 24 6 53 6 28 1 72 4 97 8 103 14 116 16 140 21 14 4 36 8 50 11 14 3
48 11 76 19 28 8 59 16 70 18 10 2 28 7 39 11 11 5 31 12 45 16 14 4 34 11 45
16 11 4 26 8 33 10 19 4 266 117 272 125 3 3 21 14 40 24 19 10 75 45 124 77
95 64 97 65 138 100 15 13 42 34 60 48 30 23 220 212 243 242 31 41 90 114 95
118 3 3 32 48 65 100 32 52 65 106 74 120 52 84 163 359 186 460 1 3 7 32 15
65 8 33 14 62 15 65 0 3 4 27 9 53 4 27 9 59 12 70 22 114 21 443 -1 558 -3
13 -7 38 -10 54 -52 308 -195 644 -375 876 -19 25 -46 61 -60 79 -49 66 -299
310 -318 310 -6 0 -12 4 -14 8 -5 12 -125 102 -137 102 -5 0 -14 6 -18 13 -4
7 -19 18 -33 24 -14 7 -43 24 -65 37 -58 36 -243 126 -258 126 -7 0 -17 4 -22
9 -19 18 -294 100 -387 116 -15 3 -41 7 -56 10 -33 5 -83 12 -162 21 -50 6
-328 12 -333 8z m263 -808 c19 -3 45 -7 56 -10 12 -2 37 -7 55 -10 139 -23
357 -115 482 -202 26 -19 49 -34 52 -34 3 0 14 -8 24 -17 11 -10 48 -43 82
-73 50 -44 149 -152 187 -205 38 -53 142 -240 142 -256 0 -4 8 -24 17 -45 9
-22 16 -43 15 -47 -1 -4 2 -16 7 -25 11 -20 37 -144 46 -220 8 -66 9 -296 2
-337 -3 -16 -9 -50 -12 -75 -3 -25 -10 -59 -16 -76 -5 -17 -11 -40 -13 -50 -9
-46 -96 -244 -116 -264 -3 -3 -11 -17 -19 -32 -8 -15 -21 -36 -30 -45 -9 -10
-30 -36 -46 -57 -55 -72 -127 -139 -263 -242 -35 -28 -189 -110 -222 -119
l-25 -7 23 24 c47 48 65 75 102 153 50 105 62 163 63 295 1 248 -130 476 -346
600 -196 113 -409 135 -637 65 -3 -1 -18 -7 -33 -13 -16 -7 -31 -12 -35 -12
-4 0 -41 -22 -82 -48 -77 -49 -156 -121 -200 -181 -36 -49 -89 -148 -82 -155
3 -3 1 -6 -5 -6 -5 0 -10 -6 -11 -12 -1 -7 -10 -51 -20 -98 -42 -189 -4 -384
102 -530 22 -30 44 -58 50 -62 6 -4 8 -9 5 -13 -8 -8 -191 88 -249 130 -26 19
-50 35 -53 35 -7 0 -97 80 -152 136 -54 54 -103 113 -123 147 -9 15 -20 27
-24 27 -4 0 -8 5 -8 12 0 6 -6 19 -14 27 -34 38 -136 268 -149 336 -2 11 -7
27 -10 35 -3 8 -8 33 -12 55 -3 22 -8 53 -11 68 -20 108 -6 343 28 462 6 22
12 42 13 45 7 36 31 100 38 100 4 0 6 4 3 8 -12 19 126 256 198 339 57 66 216
219 216 207 0 -2 24 14 53 36 87 67 307 169 420 196 4 1 8 2 10 4 4 3 43 12
117 25 19 3 62 9 95 11 33 3 61 7 62 8 4 4 217 -3 253 -8z"
    />
  </g>
</svg>
